<svg width="16" height="16" viewBox="0 0 16 16" fill="none" xmlns="http://www.w3.org/2000/svg">
<path d="M8 12C9.06087 12 10.0783 11.5786 10.8284 10.8284C11.5786 10.0783 12 9.06087 12 8C12 6.93913 11.5786 5.92172 10.8284 5.17157C10.0783 4.42143 9.06087 4 8 4C6.93913 4 5.92172 4.42143 5.17157 5.17157C4.42143 5.92172 4 6.93913 4 8C4 9.06087 4.42143 10.0783 5.17157 10.8284C5.92172 11.5786 6.93913 12 8 12ZM8 3C8.65661 3 9.30679 3.12933 9.91342 3.3806C10.52 3.63188 11.0712 4.00017 11.5355 4.46447C11.9998 4.92876 12.3681 5.47995 12.6194 6.08658C12.8707 6.69321 13 7.34339 13 8C13 9.32608 12.4732 10.5979 11.5355 11.5355C10.5979 12.4732 9.32608 13 8 13C5.235 13 3 10.75 3 8C3 6.67392 3.52678 5.40215 4.46447 4.46447C5.40215 3.52678 6.67392 3 8 3ZM8.25 5.5V8.125L10.5 9.46L10.125 10.075L7.5 8.5V5.5H8.25Z" fill="black" fill-opacity="0.49"/>
</svg>
