<svg width="58" height="50" viewBox="0 0 58 50" fill="none" xmlns="http://www.w3.org/2000/svg">
<g filter="url(#filter0_d_218_1732)">
<path d="M3.9209 41.6292C4.90558 42.5518 6.20625 43.0622 7.55562 43.0556H46.4445C49.5126 43.0556 52.0001 40.5681 52.0001 36.8056V25H26.3056L3.9209 41.6292Z" fill="#D7141A"/>
<path d="M46.4443 6.94446H7.55537C6.20054 6.9441 4.89275 7.44131 3.88037 8.34168L26.3054 25H51.9998V12.5C51.9998 11.0266 51.4145 9.61351 50.3726 8.57164C49.3308 7.52977 47.9177 6.94446 46.4443 6.94446Z" fill="#EEEEEE"/>
<path d="M3.92083 41.6292L26.3056 25L3.88056 8.34167C3.29052 8.86212 2.81776 9.50195 2.49357 10.2188C2.16937 10.9357 2.00114 11.7132 2 12.5L2 36.8056C2 38.8611 2.74583 40.532 3.92083 41.6292Z" fill="#11457E"/>
</g>
<defs>
<filter id="filter0_d_218_1732" x="0" y="-2" width="58" height="58" filterUnits="userSpaceOnUse" color-interpolation-filters="sRGB">
<feFlood flood-opacity="0" result="BackgroundImageFix"/>
<feColorMatrix in="SourceAlpha" type="matrix" values="0 0 0 0 0 0 0 0 0 0 0 0 0 0 0 0 0 0 127 0" result="hardAlpha"/>
<feOffset dx="2" dy="2"/>
<feGaussianBlur stdDeviation="2"/>
<feComposite in2="hardAlpha" operator="out"/>
<feColorMatrix type="matrix" values="0 0 0 0 0 0 0 0 0 0 0 0 0 0 0 0 0 0 0.25 0"/>
<feBlend mode="normal" in2="BackgroundImageFix" result="effect1_dropShadow_218_1732"/>
<feBlend mode="normal" in="SourceGraphic" in2="effect1_dropShadow_218_1732" result="shape"/>
</filter>
</defs>
</svg>
