<svg width="20" height="20" viewBox="0 0 20 20" fill="none" xmlns="http://www.w3.org/2000/svg">
<path d="M6.6665 4.79169C6.32484 4.79169 6.0415 4.50835 6.0415 4.16669V1.66669C6.0415 1.32502 6.32484 1.04169 6.6665 1.04169C7.00817 1.04169 7.2915 1.32502 7.2915 1.66669V4.16669C7.2915 4.50835 7.00817 4.79169 6.6665 4.79169Z" fill="black"/>
<path d="M13.3335 4.79169C12.9918 4.79169 12.7085 4.50835 12.7085 4.16669V1.66669C12.7085 1.32502 12.9918 1.04169 13.3335 1.04169C13.6752 1.04169 13.9585 1.32502 13.9585 1.66669V4.16669C13.9585 4.50835 13.6752 4.79169 13.3335 4.79169Z" fill="black"/>
<path d="M7.08333 12.0833C6.975 12.0833 6.86666 12.0584 6.76666 12.0167C6.65833 11.975 6.57501 11.9167 6.49167 11.8417C6.34167 11.6833 6.25 11.4667 6.25 11.25C6.25 11.0333 6.34167 10.8167 6.49167 10.6584C6.57501 10.5834 6.66666 10.525 6.76666 10.4833C6.96666 10.4 7.2 10.4 7.4 10.4833C7.5 10.525 7.59166 10.5834 7.67499 10.6584C7.70833 10.7 7.74999 10.7417 7.77499 10.7834C7.80832 10.8334 7.83334 10.8833 7.85001 10.9333C7.87501 10.9833 7.89168 11.0333 7.90001 11.0833C7.90834 11.1417 7.91667 11.2 7.91667 11.25C7.91667 11.4667 7.82499 11.6833 7.67499 11.8417C7.59166 11.9167 7.5 11.975 7.4 12.0167C7.3 12.0584 7.19167 12.0833 7.08333 12.0833Z" fill="black"/>
<path d="M9.99984 12.0834C9.8915 12.0834 9.78317 12.0584 9.68317 12.0167C9.57483 11.975 9.49151 11.9167 9.40818 11.8417C9.25818 11.6834 9.1665 11.4667 9.1665 11.25C9.1665 11.2 9.17483 11.1417 9.18316 11.0834C9.19149 11.0334 9.20816 10.9834 9.23316 10.9334C9.24983 10.8834 9.27485 10.8334 9.30818 10.7834C9.34152 10.7417 9.37484 10.7 9.40818 10.6584C9.71651 10.35 10.2748 10.35 10.5915 10.6584C10.6248 10.7 10.6582 10.7417 10.6915 10.7834C10.7248 10.8334 10.7498 10.8834 10.7665 10.9334C10.7915 10.9834 10.8082 11.0334 10.8165 11.0834C10.8248 11.1417 10.8332 11.2 10.8332 11.25C10.8332 11.4667 10.7415 11.6834 10.5915 11.8417C10.4332 11.9917 10.2248 12.0834 9.99984 12.0834Z" fill="black"/>
<path d="M7.08333 15C6.975 15 6.86666 14.975 6.76666 14.9334C6.66666 14.8917 6.57501 14.8334 6.49167 14.7584C6.34167 14.6 6.25 14.3834 6.25 14.1667C6.25 14.1167 6.25832 14.0584 6.26666 14.0084C6.27499 13.95 6.29166 13.9 6.31666 13.85C6.33332 13.8 6.35834 13.75 6.39168 13.7C6.41668 13.6584 6.45834 13.6167 6.49167 13.575C6.57501 13.5 6.66666 13.4417 6.76666 13.4C6.96666 13.3167 7.2 13.3167 7.4 13.4C7.5 13.4417 7.59166 13.5 7.67499 13.575C7.70833 13.6167 7.74999 13.6584 7.77499 13.7C7.80832 13.75 7.83334 13.8 7.85001 13.85C7.87501 13.9 7.89168 13.95 7.90001 14.0084C7.90834 14.0584 7.91667 14.1167 7.91667 14.1667C7.91667 14.3834 7.82499 14.6 7.67499 14.7584C7.59166 14.8334 7.5 14.8917 7.4 14.9334C7.3 14.975 7.19167 15 7.08333 15Z" fill="black"/>
<path d="M17.0832 8.19995H2.9165C2.57484 8.19995 2.2915 7.91662 2.2915 7.57495C2.2915 7.23328 2.57484 6.94995 2.9165 6.94995H17.0832C17.4248 6.94995 17.7082 7.23328 17.7082 7.57495C17.7082 7.91662 17.4248 8.19995 17.0832 8.19995Z" fill="black"/>
<path d="M13.1833 18.9833C12.8666 18.9833 12.5666 18.8667 12.35 18.65C12.0916 18.3917 11.975 18.0167 12.0333 17.625L12.1916 16.5C12.2333 16.2083 12.4083 15.8583 12.6166 15.65L15.5666 12.7C15.9666 12.3 16.3583 12.0917 16.7833 12.05C17.3083 12 17.8166 12.2167 18.3 12.7C18.8083 13.2083 19.4916 14.2417 18.3 15.4333L15.35 18.3833C15.1416 18.5917 14.7916 18.7667 14.5 18.8083L13.375 18.9667C13.3083 18.975 13.25 18.9833 13.1833 18.9833ZM16.925 13.2917C16.9166 13.2917 16.9083 13.2917 16.9 13.2917C16.7833 13.3 16.625 13.4083 16.45 13.5833L13.5 16.5333C13.475 16.5583 13.4333 16.6417 13.4333 16.675L13.2833 17.7167L14.325 17.5667C14.3583 17.5583 14.4416 17.5167 14.4666 17.4917L17.4166 14.5417C17.7833 14.175 17.8333 13.9917 17.4166 13.575C17.2833 13.45 17.0916 13.2917 16.925 13.2917Z" fill="black"/>
<path d="M17.4333 16.0416C17.375 16.0416 17.3167 16.0333 17.2667 16.0166C16.1667 15.7083 15.2917 14.8333 14.9833 13.7333C14.8917 13.3999 15.0833 13.0582 15.4167 12.9582C15.75 12.8666 16.0917 13.0583 16.1917 13.3916C16.3833 14.0749 16.925 14.6166 17.6083 14.8082C17.9417 14.8999 18.1333 15.2499 18.0417 15.5833C17.9583 15.8583 17.7083 16.0416 17.4333 16.0416Z" fill="black"/>
<path d="M10 18.9584H6.66667C3.625 18.9584 1.875 17.2084 1.875 14.1667V7.08335C1.875 4.04169 3.625 2.29169 6.66667 2.29169H13.3333C16.375 2.29169 18.125 4.04169 18.125 7.08335V10C18.125 10.3417 17.8417 10.625 17.5 10.625C17.1583 10.625 16.875 10.3417 16.875 10V7.08335C16.875 4.70002 15.7167 3.54169 13.3333 3.54169H6.66667C4.28333 3.54169 3.125 4.70002 3.125 7.08335V14.1667C3.125 16.55 4.28333 17.7084 6.66667 17.7084H10C10.3417 17.7084 10.625 17.9917 10.625 18.3334C10.625 18.675 10.3417 18.9584 10 18.9584Z" fill="black"/>
</svg>
