<svg width="40" height="40" viewBox="0 0 40 40" fill="none" xmlns="http://www.w3.org/2000/svg">
<path d="M20.0002 36.6667C29.2052 36.6667 36.6668 33.31 36.6668 29.1667C36.6668 27.0567 34.7285 25.15 31.6085 23.785C29.7052 27.2783 26.8035 30.29 23.1168 31.865C22.1312 32.284 21.0712 32.4999 20.0002 32.4999C18.9292 32.4999 17.8691 32.284 16.8835 31.865C13.1968 30.29 10.2952 27.2783 8.39183 23.7867C5.27183 25.1483 3.3335 27.0567 3.3335 29.1667C3.3335 33.31 10.7952 36.6667 20.0002 36.6667Z" fill="black"/>
<path fill-rule="evenodd" clip-rule="evenodd" d="M8.3335 14.1917C8.3335 8.195 13.5568 3.33333 20.0002 3.33333C26.4435 3.33333 31.6668 8.195 31.6668 14.1917C31.6668 20.1417 27.9435 27.0833 22.1335 29.5667C21.4586 29.8527 20.7331 30.0001 20.0002 30.0001C19.2672 30.0001 18.5417 29.8527 17.8668 29.5667C12.0568 27.0833 8.3335 20.14 8.3335 14.1917ZM20.0002 18.3333C20.8842 18.3333 21.7321 17.9821 22.3572 17.357C22.9823 16.7319 23.3335 15.8841 23.3335 15C23.3335 14.1159 22.9823 13.2681 22.3572 12.643C21.7321 12.0179 20.8842 11.6667 20.0002 11.6667C19.1161 11.6667 18.2683 12.0179 17.6431 12.643C17.018 13.2681 16.6668 14.1159 16.6668 15C16.6668 15.8841 17.018 16.7319 17.6431 17.357C18.2683 17.9821 19.1161 18.3333 20.0002 18.3333Z" fill="black"/>
</svg>
