<svg width="58" height="50" viewBox="0 0 58 50" fill="none" xmlns="http://www.w3.org/2000/svg">
<g filter="url(#filter0_d_218_1719)">
<path d="M52 37.5V31.9445H2V37.5C2 38.9734 2.58532 40.3865 3.62718 41.4284C4.66905 42.4703 6.08213 43.0556 7.55556 43.0556H46.4444C47.9179 43.0556 49.3309 42.4703 50.3728 41.4284C51.4147 40.3865 52 38.9734 52 37.5Z" fill="#EE2024"/>
<path d="M52 31.9445H2V12.5C2 11.0266 2.58532 9.61351 3.62718 8.57164C4.66905 7.52977 6.08213 6.94446 7.55556 6.94446H46.4444C47.9179 6.94446 49.3309 7.52977 50.3728 8.57164C51.4147 9.61351 52 11.0266 52 12.5V31.9445Z" fill="#EEEEEE"/>
<path d="M2 18.0555H52V31.9444H2V18.0555Z" fill="#0A4EA2"/>
<path d="M18.4405 34.8472C16.8724 33.95 13.3877 31.6833 12.1141 28.6139C10.8294 25.5208 11.1155 21.0819 11.446 15.9417L11.5294 14.6417H28.1446L28.2294 15.9417C28.5599 21.0806 28.846 25.5181 27.5613 28.6125C26.2863 31.6833 22.803 33.9514 21.2335 34.8472L19.8391 35.6417L18.4405 34.8472Z" fill="white"/>
<path d="M26.8417 16.0305H12.8306C12.5001 21.1792 12.2445 25.3083 13.3959 28.0805C14.814 31.4972 19.6681 33.9417 19.8279 34.0194V34.0278L19.8348 34.0236L19.8417 34.0278V34.0194C20.0015 33.9403 24.8556 31.4972 26.2751 28.0805C27.4279 25.3083 27.1737 21.1778 26.8417 16.0305Z" fill="#EE2024"/>
<path d="M24.0346 22.3736C24.0346 22.3736 22.0888 22.5583 20.3791 22.6028C20.351 22.0077 20.3524 21.4116 20.3832 20.8167C21.7346 20.9 22.6679 21.1583 22.6679 21.1583C23.011 21.1583 23.2888 20.8805 23.2888 20.5375V19.6958C23.2888 19.3528 23.011 19.075 22.6679 19.075C22.6679 19.075 21.6416 19.25 20.4902 19.3236C20.5888 18.2375 20.7068 17.3305 20.7068 17.3305C20.7068 16.9875 20.4291 16.7097 20.086 16.7097H19.2457C18.9027 16.7097 18.6249 16.9875 18.6249 17.3305C18.6249 17.3305 18.7527 18.2555 18.861 19.3347C18.1235 19.2932 17.3893 19.2065 16.6624 19.075C16.3193 19.075 16.0416 19.3528 16.0416 19.6958V20.5375C16.0416 20.8805 16.3193 21.1583 16.6624 21.1583C16.6624 21.1583 17.5499 20.8722 18.9818 20.8042C19.0013 21.1236 19.0152 21.4333 19.0152 21.7014C19.0152 21.925 19.0068 22.2403 18.9929 22.6028C17.2679 22.5569 15.2527 22.375 15.2527 22.375C14.9096 22.375 14.6318 22.6528 14.6318 22.9958V23.8375C14.6318 24.1806 14.9096 24.4583 15.2527 24.4583C15.2527 24.4583 17.0846 24.3083 18.9124 24.2806C18.7971 26.4069 18.6249 28.8944 18.6249 28.8944C18.6249 29.2375 18.9027 29.5153 19.2457 29.5153H20.086C20.4291 29.5153 20.7068 29.2375 20.7068 28.8944C20.7068 28.8944 20.5527 26.4319 20.4499 24.2875C22.2166 24.3292 24.0346 24.4583 24.0346 24.4583C24.3777 24.4583 24.6554 24.1806 24.6554 23.8375V22.9958C24.6554 22.6528 24.3777 22.3736 24.0346 22.3736Z" fill="white"/>
<path d="M25.721 29.1181C25.0155 27.6097 23.0752 27.1833 22.1544 29.0264C21.546 26.8125 19.8196 26.8125 19.8196 26.8125C19.8196 26.8125 18.0919 26.8125 17.4849 29.0264C16.571 27.1986 14.6516 27.6042 13.9321 29.0833C15.7571 31.9639 19.6863 33.95 19.8307 34.0208V34.0278L19.8377 34.0236L19.8446 34.0278V34.0194C19.9877 33.9486 23.8863 31.9792 25.721 29.1181Z" fill="#0A4EA2"/>
</g>
<defs>
<filter id="filter0_d_218_1719" x="0" y="-2" width="58" height="58" filterUnits="userSpaceOnUse" color-interpolation-filters="sRGB">
<feFlood flood-opacity="0" result="BackgroundImageFix"/>
<feColorMatrix in="SourceAlpha" type="matrix" values="0 0 0 0 0 0 0 0 0 0 0 0 0 0 0 0 0 0 127 0" result="hardAlpha"/>
<feOffset dx="2" dy="2"/>
<feGaussianBlur stdDeviation="2"/>
<feComposite in2="hardAlpha" operator="out"/>
<feColorMatrix type="matrix" values="0 0 0 0 0 0 0 0 0 0 0 0 0 0 0 0 0 0 0.25 0"/>
<feBlend mode="normal" in2="BackgroundImageFix" result="effect1_dropShadow_218_1719"/>
<feBlend mode="normal" in="SourceGraphic" in2="effect1_dropShadow_218_1719" result="shape"/>
</filter>
</defs>
</svg>
