<svg width="58" height="50" viewBox="0 0 58 50" fill="none" xmlns="http://www.w3.org/2000/svg">
<g filter="url(#filter0_d_218_1710)">
<path d="M31.6876 42.1875H44.1876C45.7321 42.1875 47.0446 41.8391 48.1345 41.232L31.6876 31.4211V42.1875ZM51.7345 36.1016C51.9126 35.307 52.0032 34.4656 52.0032 33.593V29.6867H40.9798L51.7314 36.1016M2.27354 13.8742C2.08816 14.7054 1.99645 15.5547 2.00011 16.4062V20.3125H13.0657L2.27354 13.8742ZM22.3126 7.8125H9.81261C8.27901 7.8125 6.97511 8.15625 5.88995 8.75469L22.3126 18.5516V7.8125ZM5.93995 41.2703C7.01495 41.8516 8.30167 42.1875 9.81261 42.1875H22.3126V31.5031L5.93995 41.2703ZM2.00011 29.6875V33.5938C2.00011 34.493 2.09542 35.3594 2.2837 36.1742L13.1579 29.6875H2.00011ZM48.1837 8.79297C47.0853 8.16953 45.7548 7.8125 44.1876 7.8125H31.6876V18.6336L48.1837 8.79297ZM52.0001 20.3125V16.4062C52.0001 15.5516 51.9118 14.7273 51.7407 13.9477L41.072 20.3125H52.0001Z" fill="#2E3192"/>
<path d="M41.0719 20.3125L51.7406 13.9477C51.2516 11.7102 50.0609 9.85781 48.1836 8.79297L31.6875 18.6336V7.8125H30.125V21.875H52V20.3125H41.0719ZM2 28.125V29.6875H13.1578L2.28359 36.1742C2.8 38.4047 4.02656 40.2359 5.93984 41.2703L22.3125 31.5031V42.1875H23.875V28.125H2ZM52 28.125H30.125V42.1875H31.6875V31.4211L48.1344 41.2328C50.0258 40.1797 51.2312 38.3375 51.7312 36.1031L40.9797 29.6875H52V28.125ZM22.3125 7.8125V18.5516L5.88984 8.75469C3.99141 9.80156 2.77812 11.6406 2.27266 13.8742L13.0656 20.3125H2V21.875H23.875V7.8125H22.3125Z" fill="#E6E7E8"/>
<path d="M30.125 21.875V7.8125H23.875V21.875H2V28.125H23.875V42.1875H30.125V28.125H52V21.875H30.125Z" fill="#BE1E2D"/>
<path d="M19.1391 20.3125L3.475 10.9617C3.13828 11.4617 2.86797 12.0117 2.64453 12.5977L15.5719 20.3125H19.1367M51.2891 37.5703L38.1539 29.6875H34.5164L50.3859 39.2336C50.753 38.7188 51.0563 38.1613 51.2891 37.5735M49.4367 9.68048L31.6633 20.3125L35.2719 20.3149L50.6086 11.1328C50.2664 10.5102 49.9055 10.1086 49.4367 9.68048ZM3.41641 38.9649C3.76787 39.5001 4.19079 39.9847 4.67344 40.4055L22.3617 29.6875H18.7969L3.41641 38.9649Z" fill="#BE1E2D"/>
</g>
<defs>
<filter id="filter0_d_218_1710" x="0" y="-2" width="58.0034" height="58" filterUnits="userSpaceOnUse" color-interpolation-filters="sRGB">
<feFlood flood-opacity="0" result="BackgroundImageFix"/>
<feColorMatrix in="SourceAlpha" type="matrix" values="0 0 0 0 0 0 0 0 0 0 0 0 0 0 0 0 0 0 127 0" result="hardAlpha"/>
<feOffset dx="2" dy="2"/>
<feGaussianBlur stdDeviation="2"/>
<feComposite in2="hardAlpha" operator="out"/>
<feColorMatrix type="matrix" values="0 0 0 0 0 0 0 0 0 0 0 0 0 0 0 0 0 0 0.25 0"/>
<feBlend mode="normal" in2="BackgroundImageFix" result="effect1_dropShadow_218_1710"/>
<feBlend mode="normal" in="SourceGraphic" in2="effect1_dropShadow_218_1710" result="shape"/>
</filter>
</defs>
</svg>
