<svg width="24" height="24" viewBox="0 0 40 40" fill="none" xmlns="http://www.w3.org/2000/svg">
<path d="M6.66675 31.6668V16.6668C6.66675 16.1391 6.78508 15.6391 7.02175 15.1668C7.25841 14.6946 7.58453 14.3057 8.00008 14.0002L18.0001 6.50016C18.5834 6.05572 19.2501 5.8335 20.0001 5.8335C20.7501 5.8335 21.4167 6.05572 22.0001 6.50016L32.0001 14.0002C32.4167 14.3057 32.7434 14.6946 32.9801 15.1668C33.2167 15.6391 33.3345 16.1391 33.3334 16.6668V31.6668C33.3334 32.5835 33.0068 33.3685 32.3534 34.0218C31.7001 34.6752 30.9156 35.0013 30.0001 35.0002H25.0001C24.5279 35.0002 24.1323 34.8402 23.8134 34.5202C23.4945 34.2002 23.3345 33.8046 23.3334 33.3335V25.0002C23.3334 24.5279 23.1734 24.1324 22.8534 23.8135C22.5334 23.4946 22.1379 23.3346 21.6667 23.3335H18.3334C17.8612 23.3335 17.4656 23.4935 17.1467 23.8135C16.8279 24.1335 16.6679 24.5291 16.6667 25.0002V33.3335C16.6667 33.8057 16.5067 34.2018 16.1867 34.5218C15.8667 34.8418 15.4712 35.0013 15.0001 35.0002H10.0001C9.08341 35.0002 8.29897 34.6741 7.64675 34.0218C6.99453 33.3696 6.66786 32.5846 6.66675 31.6668Z" fill="currentColor"/>
</svg>
