<svg width="24" height="24" viewBox="0 0 40 40" fill="none" xmlns="http://www.w3.org/2000/svg">
<path d="M34.6667 10.6667H24.0001V2.66667L20.0001 0L16.0001 2.66667V10.6667H5.33341L2.66675 13.3333V16H37.3334V13.3333L34.6667 10.6667ZM20.0001 4C21.0667 4 21.8667 4.8 21.8667 6.13333C21.8667 7.46667 21.0667 8 20.0001 8C18.9334 8 17.8667 7.2 17.8667 5.86667C17.8667 4.8 18.9334 4 20.0001 4ZM34.6667 18.6667H5.33341V29.3333L2.66675 33.3333V37.3333H37.3334V33.3333L34.6667 29.3333V18.6667ZM13.3334 33.3333H10.6667V21.3333H13.3334V33.3333ZM21.3334 33.3333H18.6667V21.3333H21.3334V33.3333ZM29.3334 33.3333H26.6667V21.3333H29.3334V33.3333Z" fill="currentColor"/>
</svg>
